<svg id="Design" xmlns="http://www.w3.org/2000/svg" viewBox="0 0 133.16 20.37"><defs><style>.cls-1{fill:#2bb8ea;}.cls-2{fill:#fff;}</style></defs><title>cultbox-logo</title><rect class="cls-1" width="133.16" height="20.37"/><path class="cls-2" d="M260.95,186a4,4,0,0,1,2.81,1.15l0.19,0.19,0.95-.82-0.22-.22a5.48,5.48,0,0,0-7.54-.07,5.31,5.31,0,0,0-1.47,3.84,5,5,0,0,0,5.27,5.19,5.24,5.24,0,0,0,3.73-1.54l0.21-.21-0.92-.86-0.2.19a4.06,4.06,0,0,1-2.83,1.15,3.75,3.75,0,0,1-4-3.95,4.09,4.09,0,0,1,1.1-3A3.94,3.94,0,0,1,260.95,186Z" transform="translate(-251.59 -179.89)"/><path class="cls-2" d="M283.26,191.14a2.64,2.64,0,0,1-2.69,2.83,2.69,2.69,0,0,1-1.85-.7,2.82,2.82,0,0,1-.84-2.13v-6.31h-1.31v6.31a3.89,3.89,0,0,0,4,4.09,3.92,3.92,0,0,0,4-4.09v-6.31h-1.31v6.31Z" transform="translate(-251.59 -179.89)"/><polygon class="cls-2" points="45.41 4.93 44.09 4.93 44.09 15.2 50.87 15.2 50.87 13.92 45.41 13.92 45.41 4.93"/><polygon class="cls-2" points="61.36 6.19 64.86 6.19 64.86 15.2 66.18 15.2 66.18 6.19 69.69 6.19 69.69 4.95 61.36 4.95 61.36 6.19"/><path class="cls-2" d="M338.62,189.82a2.38,2.38,0,0,0,1.14-2.06c0-2.16-1.87-2.93-3.47-2.93H332v10.27h4.26c2.42,0,3.8-1,3.8-2.82A2.74,2.74,0,0,0,338.62,189.82Zm-2.34,4h-2.94v-3.3h3c0.56,0,2.38.13,2.4,1.76C338.78,193.28,337.94,193.8,336.28,193.8ZM333.34,186h2.94c1,0,2.19.45,2.19,1.72,0,1-.7,1.46-2.09,1.46h-3V186Z" transform="translate(-251.59 -179.89)"/><path class="cls-2" d="M355.94,184.67a5,5,0,0,0-5.17,5.27,5.18,5.18,0,1,0,10.35,0,5.39,5.39,0,0,0-1.48-3.88A5.08,5.08,0,0,0,355.94,184.67Zm0,9.32a3.81,3.81,0,0,1-3.86-4,4.12,4.12,0,0,1,1.1-3,3.79,3.79,0,0,1,2.76-1,3.75,3.75,0,0,1,3.88,4A3.8,3.8,0,0,1,355.94,194Z" transform="translate(-251.59 -179.89)"/><polygon class="cls-2" points="124.81 9.94 127.99 5.42 128.04 5.33 128.04 4.95 126.8 4.95 124 8.88 121.21 4.95 120.25 4.95 119.96 4.96 119.96 5.34 123.19 9.94 119.75 14.73 119.7 14.82 119.7 15.2 121.02 15.2 124 10.98 126.98 15.2 128.01 15.2 128.3 15.19 128.3 14.81 124.81 9.94"/><rect class="cls-2" x="74.44" width="1.28" height="20.37"/><rect class="cls-2" x="94.05" width="1.28" height="20.37"/><rect class="cls-2" x="113.65" width="1.28" height="20.37"/><rect class="cls-2" x="18.32" width="1.28" height="20.37"/><rect class="cls-2" x="37.93" width="1.28" height="20.37"/><rect class="cls-2" x="55.16" width="1.28" height="20.37"/></svg>